<svg version="1.1" xmlns="http://www.w3.org/2000/svg" viewBox="-30.134336854355183 -29.826230198235955 54.749644298141064 60.225357006151015" fill="none" stroke="black" stroke-width="0.6%" vector-effect="non-scaling-stroke">
    <path d="M -29.13434 1.34004 L -29.13434 -11.82452 L -26.093 -8.91069 L -26.093 -11.83615 L -29.13434 -14.74998 L -29.13434 -27.91454 L 0.15262 0.14455 L 17.9504 -0.76714 C 18.47 -1.35 19.28 -1.99 20.36768 -2.71853 C 26.36 -6.71 24.65 -8.08 23.61531 -6.11662 C 26.36 -6.71 24.65 -8.08 10.26476 -10.83321 C -4.12 -13.58 -5.77 -15.17 -2.66762 -15.41759 C -4.12 -13.58 -5.77 -15.17 1.70459 -19.0345 C 9.18 -22.9 8 -24.3 6.30001 -22.75114 C 9.18 -22.9 8 -24.3 -5.29783 -27.308 C -7.71 -27.85 -9.72 -28.35 -11.33655 -28.82623 L -29.13434 -27.91454" />
    <path d="M -26.23583 -11.973 L -29.13434 -11.82452" />
    <path d="M -29.13434 1.34004 L 0.15262 29.39913 L 17.9504 28.48743 C 18.47 27.9 19.28 27.26 20.36768 26.53605 C 26.36 22.54 24.65 21.17 23.61531 23.13796 L 23.61531 -6.11662" />
    <path d="M 0.15262 29.39913 L 0.15262 16.23457 L 17.9504 15.32287" />
    <path d="M -2.88872 13.32074 L 0.15262 16.23457" />
    <path d="M -2.88872 10.39528 L -2.88872 13.32074" />
    <path d="M 0.15262 13.30911 L -2.88872 10.39528" />
    <path d="M 0.15262 13.30911 L 0.15262 0.14455" />
    <path d="M -14.94143 0.31062 A 2 0.43937 87.06759 0 0 -14.38854 2.73968 A 2 0.43937 87.06759 0 0 -14.59318 -1.25509 A 2 0.43937 87.06759 0 0 -14.94143 0.31062 Z" />
    <path d="M 17.9504 28.48743 L 17.9504 15.32287" />
    <path d="M 20.36768 13.37149 C 20.33 13.4 20.3 13.42 20.26077 13.4431 C 20.23 13.47 20.19 13.49 20.15478 13.51477 C 20.12 13.54 20.08 13.56 20.04975 13.5865 C 20.01 13.61 19.98 13.63 19.94572 13.6583 C 19.91 13.68 19.88 13.71 19.84273 13.73017 C 19.81 13.75 19.77 13.78 19.74081 13.8021 C 19.71 13.83 19.67 13.85 19.64001 13.8741 C 19.61 13.9 19.57 13.92 19.54037 13.94618 C 19.51 13.97 19.47 13.99 19.44194 14.01833 C 19.41 14.04 19.38 14.07 19.34477 14.09055 C 19.31 14.11 19.28 14.14 19.2489 14.16286 C 19.22 14.19 19.19 14.21 19.15439 14.23524 C 19.12 14.26 19.09 14.28 19.0613 14.30771 C 19.03 14.33 19 14.36 18.96967 14.38025 C 18.94 14.4 18.91 14.43 18.87957 14.45289 C 18.85 14.48 18.82 14.5 18.79107 14.52561 C 18.75 14.56 18.71 14.59 18.67335 14.62466 C 18.63 14.66 18.6 14.69 18.55886 14.72387 C 18.52 14.76 18.48 14.79 18.44778 14.82326 C 18.41 14.86 18.38 14.89 18.34028 14.92282 C 18.31 14.96 18.27 14.99 18.23659 15.02257 C 18.2 15.06 18.17 15.09 18.13689 15.12249 C 18.1 15.16 18.07 15.19 18.04142 15.22259 C 18.01 15.26 17.98 15.29 17.9504 15.32287" />
    <path d="M 22.18768 9.11074 C 22.15 9.14 22.12 9.17 22.08641 9.19499 C 22.05 9.22 22.02 9.25 21.98306 9.27912 C 21.95 9.31 21.91 9.34 21.87774 9.36313 C 21.84 9.39 21.81 9.42 21.77055 9.44703 C 21.73 9.47 21.7 9.5 21.66158 9.53081 C 21.62 9.56 21.59 9.59 21.55092 9.61448 C 21.51 9.64 21.48 9.67 21.43865 9.69805 C 21.4 9.73 21.36 9.75 21.32485 9.78152 C 21.29 9.81 21.25 9.84 21.2096 9.86489 C 21.17 9.89 21.13 9.92 21.09296 9.94816 C 21.05 9.98 21.01 10 20.97501 10.03135 C 20.94 10.06 20.9 10.09 20.8558 10.11445 C 20.82 10.14 20.78 10.17 20.73541 10.19746 C 20.7 10.23 20.65 10.25 20.61389 10.28039 C 20.57 10.31 20.53 10.34 20.4913 10.36325 C 20.45 10.39 20.41 10.42 20.36768 10.44603 L 20.36768 -2.71853" />
    <path d="M 22.18768 9.11074 C 22.19 9.14 22.19 9.17 22.18768 9.20099 C 22.19 9.23 22.19 9.26 22.18768 9.29186 C 22.19 9.32 22.19 9.35 22.18768 9.38321 C 22.19 9.41 22.19 9.44 22.18768 9.47493 C 22.19 9.51 22.19 9.54 22.18768 9.56691 C 22.19 9.6 22.19 9.63 22.18768 9.65906 C 22.19 9.69 22.19 9.72 22.18768 9.75128 C 22.19 9.78 22.19 9.81 22.18768 9.84351 C 22.19 9.87 22.19 9.9 22.18768 9.93567 C 22.19 9.97 22.19 10 22.18768 10.0277 C 22.19 10.06 22.19 10.09 22.18768 10.11957 C 22.19 10.15 22.19 10.18 22.18768 10.21123 C 22.19 10.24 22.19 10.27 22.18768 10.30266 C 22.19 10.33 22.19 10.36 22.18768 10.39384 C 22.19 10.42 22.19 10.45 22.18768 10.48477 C 22.19 10.52 22.19 10.55 22.18768 10.57546 C 22.19 10.61 22.19 10.64 22.18768 10.66591 C 22.19 10.7 22.19 10.73 22.18768 10.75616 C 22.19 10.79 22.19 10.82 22.18768 10.84623 C 22.19 10.88 22.19 10.91 22.18768 10.93618 C 22.19 10.97 22.19 11 22.18768 11.02606 C 22.19 11.06 22.19 11.09 22.18768 11.11593 C 22.19 11.15 22.19 11.18 22.18768 11.20587 C 22.19 11.24 22.19 11.27 22.18768 11.29598 C 22.19 11.33 22.19 11.36 22.18768 11.38633 C 22.19 11.42 22.19 11.45 22.18768 11.47705 C 22.19 11.51 22.19 11.54 22.18768 11.56825 C 22.19 11.6 22.19 11.63 22.18768 11.66005 C 22.19 11.72 22.19 11.78 22.18768 11.84602 C 22.19 11.91 22.19 11.97 22.18768 12.0362 L 18.0895 12.24613" />
    <path d="M 22.18768 12.0362 C 22.15 12.06 22.12 12.09 22.08641 12.12045 C 22.05 12.15 22.02 12.18 21.98306 12.20458 C 21.95 12.23 21.91 12.26 21.87774 12.28859 C 21.84 12.32 21.81 12.34 21.77055 12.37248 C 21.73 12.4 21.7 12.43 21.66158 12.45627 C 21.62 12.48 21.59 12.51 21.55092 12.53994 C 21.51 12.57 21.48 12.6 21.43865 12.62351 C 21.4 12.65 21.36 12.68 21.32485 12.70698 C 21.29 12.73 21.25 12.76 21.2096 12.79035 C 21.17 12.82 21.13 12.85 21.09296 12.87362 C 21.05 12.9 21.01 12.93 20.97501 12.95681 C 20.94 12.98 20.9 13.01 20.8558 13.0399 C 20.82 13.07 20.78 13.1 20.73541 13.12292 C 20.7 13.15 20.65 13.18 20.61389 13.20585 C 20.57 13.23 20.53 13.26 20.4913 13.28871 C 20.45 13.32 20.41 13.34 20.36768 13.37149" />
    <path d="M 0.00978 13.17226 L -2.88872 13.32074" />
    <path d="M 17.9504 12.39742 L 0.15262 13.30911" />
    <path d="M 20.36768 10.44603 C 20.33 10.47 20.3 10.49 20.26077 10.51764 C 20.23 10.54 20.19 10.57 20.15478 10.58931 C 20.12 10.61 20.08 10.64 20.04975 10.66105 C 20.01 10.68 19.98 10.71 19.94572 10.73284 C 19.91 10.76 19.88 10.78 19.84273 10.80471 C 19.81 10.83 19.77 10.85 19.74081 10.87664 C 19.71 10.9 19.67 10.92 19.64001 10.94865 C 19.61 10.97 19.57 11 19.54037 11.02072 C 19.51 11.04 19.47 11.07 19.44194 11.09287 C 19.41 11.12 19.38 11.14 19.34477 11.1651 C 19.31 11.19 19.28 11.21 19.2489 11.2374 C 19.22 11.26 19.19 11.29 19.15439 11.30978 C 19.12 11.33 19.09 11.36 19.0613 11.38225 C 19.03 11.41 19 11.43 18.96967 11.4548 C 18.94 11.48 18.91 11.5 18.87957 11.52743 C 18.85 11.55 18.82 11.58 18.79107 11.60015 C 18.75 11.63 18.71 11.67 18.67335 11.6992 C 18.63 11.73 18.6 11.77 18.55886 11.79842 C 18.52 11.83 18.48 11.86 18.44778 11.8978 C 18.41 11.93 18.38 11.96 18.34028 11.99737 C 18.31 12.03 18.27 12.06 18.23659 12.09711 C 18.2 12.13 18.17 12.16 18.13689 12.19703 C 18.1 12.23 18.07 12.26 18.04142 12.29713 C 18.01 12.33 17.98 12.36 17.9504 12.39742 L 17.9504 -0.76714" />
    <path d="M 20.36768 26.53605 L 20.36768 13.37149" />
    <path d="M 1.70459 -12.75992 L 1.70459 -19.0345" />
    <path d="M 6.30001 -11.63227 L 6.30001 -22.75114" />
</svg>